<svg width="71" height="79" viewBox="0 0 71 79" fill="none" xmlns="http://www.w3.org/2000/svg">
<path d="M8.94563 14.8085V17.383V18.0851L10.3478 18.7872L11.2826 19.7234H13.6195L14.3206 18.7872L15.4891 18.0851C16.0344 18.0851 17.2652 17.9447 17.826 17.383C18.3869 16.8213 18.8387 16.8369 18.9945 16.9149C19.384 16.7589 20.3032 16.4468 20.8641 16.4468C21.5651 16.4468 21.7988 14.3404 23.6684 11.2979C24.4162 10.7362 23.98 10.4397 23.6684 10.3617L21.7988 7.55319L22.7336 6.85106C23.0452 7.08511 23.9488 7.55319 25.0706 7.55319C26.4727 7.55319 26.4727 7.55319 26.4727 8.02128C26.4727 8.39574 27.7191 8.33333 28.3423 8.25532L29.9782 9.65957L30.4456 9.19149C30.9908 8.95745 32.5955 8.30213 34.6521 7.55319C35.8205 7.55319 35.3531 6.85106 36.5216 6.38298L36.989 5.68085L38.6249 4.97872C39.2481 4.12057 40.6347 2.40426 41.1955 2.40426C41.7564 2.40426 42.364 2.87234 42.5977 3.10638H43.5325C43.9999 3.57447 44.9814 5.11915 45.1683 7.55319C45.3553 8.11489 45.7136 8.09929 45.8694 8.02128C46.3368 8.02128 47.6922 7.78723 49.3748 6.85106C49.5618 6.28936 49.9201 5.83688 50.0759 5.68085L51.0107 4.97872L52.4129 3.57447C52.7868 3.2 53.6592 3.10638 54.0487 3.10638V2.40426L55.2172 1H56.152L57.0868 1.46809H58.0215C58.3331 1.70213 59.0498 2.21702 59.4237 2.40426C59.7976 2.59149 60.0469 2.95035 60.1248 3.10638C60.5143 3.34043 61.9009 4.04255 64.3313 4.97872C66.7617 5.91489 65.6556 5.83688 64.7987 5.68085V6.85106C65.2661 7.08511 66.3411 7.64681 66.902 8.02128C67.4628 8.39574 66.6683 8.95745 66.2009 9.19149C66.2009 9.89362 66.5748 11.5787 68.0704 12.7021C68.4443 13.2638 68.2262 13.4043 68.0704 13.4043V14.3404V16.4468H66.902H65.9672L64.7987 16.9149L64.3313 17.383V18.7872C64.565 19.3333 65.2661 20.7532 66.2009 22.0638C66.5748 22.6255 66.8241 23.234 66.902 23.4681L68.0704 24.1702V24.8723C68.8494 25.1064 70.3139 25.6681 69.94 26.0426C69.5661 26.417 69.161 27.4468 69.0052 27.9149L68.0704 29.3191C67.9146 29.5532 67.3226 30.3957 66.2009 31.8936C65.64 32.8298 65.9672 32.9078 66.2009 32.8298L64.3313 34.7021C63.4744 34.7021 61.6672 34.8426 61.2933 35.4043C60.9194 35.966 60.3585 36.1064 60.1248 36.1064L59.4237 37.5106C59.3458 38.2908 59.1433 39.9447 58.9563 40.3191C58.7694 40.6936 58.8784 41.7234 58.9563 42.1915C58.8005 43.0496 58.4889 45 58.4889 45.9362C58.4889 46.8723 58.1773 46.3262 58.0215 45.9362C58.1773 47.2624 58.4889 50.1021 58.4889 50.8511C58.4889 51.7872 58.0215 52.0213 58.4889 53.6596C58.9563 55.2979 58.9563 54.8298 58.9563 55.766V60.2128C58.9563 61.617 58.7226 60.9149 58.0215 63.7234C57.5542 64.8936 58.2552 65.1277 58.0215 65.1277C57.7879 65.1277 57.7879 67 57.0868 67.9362C56.5259 68.6851 56.8531 68.7163 57.0868 68.6383V69.8085C57.1647 70.3546 57.2737 71.9149 57.0868 73.7872L56.3857 74.9575C55.9183 75.2695 54.7966 75.9872 54.0487 76.3617C53.3009 76.7362 53.7371 77.6099 54.0487 78C53.3476 77.5319 51.7585 76.5489 51.0107 76.3617C50.2629 76.1745 50.3875 75.9716 50.5433 75.8936C50.3875 75.4255 49.9357 74.3489 49.3748 73.7872C48.814 73.2255 48.6738 72.773 48.6738 72.617L47.9727 71.9149C47.739 71.5248 47.2716 70.5574 47.2716 69.8085V68.6383C47.739 68.6383 48.814 68.4979 49.3748 67.9362C49.9357 67.3745 50.0759 67.7021 50.0759 67.9362V67C50.2317 66.5319 50.5433 65.5021 50.5433 65.1277C50.5433 64.7532 51.4781 64.0355 51.9455 63.7234V63.0213L53.114 61.617C52.8803 61.227 52.3194 60.4 51.9455 60.2128C51.5716 60.0255 50.8549 59.1986 50.5433 58.8085L48.6738 57.8723H47.2716L45.8694 56.9362H44.2336L42.5977 57.8723C42.2082 57.5603 41.3825 56.7021 41.1955 55.766C41.0086 54.8298 40.6502 54.7518 40.4944 54.8298L39.7933 53.1915H38.6249H36.989H36.0542H34.6521L33.4836 52.4894L32.5488 52.0213L31.3803 51.5532L30.4456 50.8511C30.0561 50.539 29.1836 49.7745 28.8097 49.2128C28.4358 48.6511 27.8749 48.8227 27.6412 48.9787H26.4727L25.0706 49.2128H23.6684C23.3568 49.1348 22.5467 48.9787 21.7988 48.9787C21.051 48.9787 21.4872 48.3546 21.7988 48.0426L22.7336 46.6383L21.7988 45.9362H17.826H17.1249H15.4891L14.3206 46.6383V47.3404L13.6195 48.0426L12.6847 48.9787H11.75L11.2826 49.2128L10.3478 50.8511H8.94563L7.54346 51.5532L6.84237 52.0213L4.97281 52.4894V50.8511C5.20651 50.227 5.72064 48.7915 5.90759 48.0426C6.09455 47.2936 5.3623 46.3262 4.97281 45.9362L3.92119 44.766V42.1915V40.3191V38.9149V37.0426H3.33695L3.92119 36.1064V34.7021V33.766V31.8936L2.86956 30.7234V27.9149H3.92119V26.1596L4.97281 26.0426V24.8723H3.33695V23.4681H1V22.0638L7.77715 14.3404L8.94563 14.8085Z" fill="#B5CFB2"/>
<path d="M2.86956 26.2766L3.92119 26.1596M3.92119 26.1596L4.97281 26.0426V24.8723H3.33695V23.4681H1V22.0638L7.77715 14.3404L8.94563 14.8085V17.383V18.0851L10.3478 18.7872L11.2826 19.7234H13.6195L14.3206 18.7872L15.4891 18.0851C16.0344 18.0851 17.2652 17.9447 17.826 17.383C18.3869 16.8213 18.8387 16.8369 18.9945 16.9149C19.384 16.7589 20.3032 16.4468 20.8641 16.4468C21.5651 16.4468 21.7988 14.3404 23.6684 11.2979C24.4162 10.7362 23.98 10.4397 23.6684 10.3617L21.7988 7.55319L22.7336 6.85106C23.0452 7.08511 23.9488 7.55319 25.0706 7.55319C26.4727 7.55319 26.4727 7.55319 26.4727 8.02128C26.4727 8.39574 27.7191 8.33333 28.3423 8.25532L29.9782 9.65957L30.4456 9.19149C30.9908 8.95745 32.5955 8.30213 34.6521 7.55319C35.8205 7.55319 35.3531 6.85106 36.5216 6.38298L36.989 5.68085L38.6249 4.97872C39.2481 4.12057 40.6346 2.40426 41.1955 2.40426C41.7564 2.40426 42.364 2.87234 42.5977 3.10638H43.5325C43.9999 3.57447 44.9814 5.11915 45.1683 7.55319C45.3553 8.11489 45.7136 8.09929 45.8694 8.02128C46.3368 8.02128 47.6922 7.78723 49.3748 6.85106C49.5618 6.28936 49.9201 5.83688 50.0759 5.68085L51.0107 4.97872C51.3223 4.66667 52.039 3.94894 52.4129 3.57447C52.7868 3.2 53.6592 3.10638 54.0487 3.10638V2.40426L55.2172 1H56.152L57.0868 1.46809H58.0215C58.3331 1.70213 59.0498 2.21702 59.4237 2.40426C59.7976 2.59149 60.0469 2.95035 60.1248 3.10638C60.5143 3.34043 61.9009 4.04255 64.3313 4.97872C66.7617 5.91489 65.6556 5.83688 64.7987 5.68085V6.85106C65.2661 7.08511 66.3411 7.64681 66.902 8.02128C67.4628 8.39574 66.6683 8.95745 66.2009 9.19149C66.2009 9.89362 66.5748 11.5787 68.0704 12.7021C68.4443 13.2638 68.2262 13.4043 68.0704 13.4043V14.3404V16.4468H66.902H65.9672L64.7987 16.9149L64.3313 17.383V18.7872C64.565 19.3333 65.2661 20.7532 66.2009 22.0638C66.5748 22.6255 66.8241 23.234 66.902 23.4681L68.0704 24.1702V24.8723C68.8494 25.1064 70.3139 25.6681 69.94 26.0426C69.5661 26.417 69.161 27.4468 69.0052 27.9149L68.0704 29.3191C67.9146 29.5532 67.3226 30.3957 66.2009 31.8936C65.64 32.8298 65.9672 32.9078 66.2009 32.8298L64.3313 34.7021C63.4744 34.7021 61.6672 34.8426 61.2933 35.4043C60.9194 35.966 60.3585 36.1064 60.1248 36.1064L59.4237 37.5106C59.3458 38.2908 59.1433 39.9447 58.9563 40.3191C58.7694 40.6936 58.8784 41.7234 58.9563 42.1915C58.8005 43.0496 58.4889 45 58.4889 45.9362C58.4889 46.8723 58.1773 46.3262 58.0215 45.9362C58.1773 47.2624 58.4889 50.1021 58.4889 50.8511C58.4889 51.7872 58.0215 52.0213 58.4889 53.6596C58.9563 55.2979 58.9563 54.8298 58.9563 55.766C58.9563 56.7021 58.9563 56.9362 58.9563 60.2128C58.9563 61.617 58.7226 60.9149 58.0215 63.7234C57.5542 64.8936 58.2552 65.1277 58.0215 65.1277C57.7879 65.1277 57.7879 67 57.0868 67.9362C56.5259 68.6851 56.8531 68.7163 57.0868 68.6383V69.8085C57.1647 70.3546 57.2737 71.9149 57.0868 73.7872L56.3857 74.9574C55.9183 75.2695 54.7966 75.9872 54.0487 76.3617C53.3009 76.7362 53.7371 77.6099 54.0487 78C53.3477 77.5319 51.7585 76.5489 51.0107 76.3617C50.2629 76.1745 50.3875 75.9716 50.5433 75.8936C50.3875 75.4255 49.9357 74.3489 49.3748 73.7872C48.814 73.2255 48.6738 72.7731 48.6738 72.617L47.9727 71.9149C47.739 71.5248 47.2716 70.5574 47.2716 69.8085C47.2716 69.0596 47.2716 68.7163 47.2716 68.6383C47.739 68.6383 48.814 68.4979 49.3748 67.9362C49.9357 67.3745 50.0759 67.7021 50.0759 67.9362V67C50.2317 66.5319 50.5433 65.5021 50.5433 65.1277C50.5433 64.7532 51.4781 64.0355 51.9455 63.7234V63.0213L53.114 61.617C52.8803 61.227 52.3194 60.4 51.9455 60.2128C51.5716 60.0255 50.8549 59.1986 50.5433 58.8085L48.6738 57.8723H47.2716L45.8694 56.9362H44.2336L42.5977 57.8723C42.2082 57.5603 41.3825 56.7021 41.1955 55.766C41.0086 54.8298 40.6502 54.7518 40.4944 54.8298L39.7933 53.1915H38.6249H36.989H36.0542H34.6521L33.4836 52.4894L32.5488 52.0213L31.3803 51.5532L30.4456 50.8511C30.0561 50.539 29.1836 49.7745 28.8097 49.2128C28.4358 48.6511 27.8749 48.8227 27.6412 48.9787H26.4727L25.0706 49.2128H23.6684C23.3568 49.1348 22.5467 48.9787 21.7988 48.9787C21.051 48.9787 21.4872 48.3546 21.7988 48.0426L22.7336 46.6383L21.7988 45.9362C20.7083 45.9362 18.3869 45.9362 17.826 45.9362C17.2652 45.9362 17.1249 45.9362 17.1249 45.9362H15.4891L14.3206 46.6383V47.3404L13.6195 48.0426L12.6847 48.9787H11.75L11.2826 49.2128L10.3478 50.8511H8.94563L7.54346 51.5532L6.84237 52.0213L4.97281 52.4894V50.8511C5.20651 50.227 5.72064 48.7915 5.90759 48.0426C6.09455 47.2936 5.3623 46.3262 4.97281 45.9362L3.92119 44.766C3.92119 44.0638 3.92119 42.566 3.92119 42.1915C3.92119 41.817 3.92119 40.7872 3.92119 40.3191V38.9149V37.0426H3.33695L3.92119 36.1064V34.7021V33.766V31.8936L2.86956 30.7234V27.9149H3.92119V26.1596Z" stroke="#7E917C" stroke-width="0.7"/>
</svg>
