<svg width="149" height="166" viewBox="0 0 149 166" fill="none" xmlns="http://www.w3.org/2000/svg">
<path d="M18 30.5V36V37.5L21 39L23 41H28L29.5 39L32 37.5C33.1667 37.5 35.8 37.2 37 36C38.2 34.8 39.1667 34.8333 39.5 35C40.3333 34.6667 42.3 34 43.5 34C45 34 45.5 29.5 49.5 23C51.1 21.8 50.1667 21.1667 49.5 21L45.5 15L47.5 13.5C48.1667 14 50.1 15 52.5 15C55.5 15 55.5 15 55.5 16C55.5 16.8 58.1667 16.6667 59.5 16.5L63 19.5L64 18.5C65.1667 18 68.6 16.6 73 15C75.5 15 74.5 13.5 77 12.5L78 11L81.5 9.5C82.8333 7.66667 85.8 4 87 4C88.2 4 89.5 5 90 5.5H92C93 6.5 95.1 9.8 95.5 15C95.9 16.2 96.6667 16.1667 97 16C98 16 100.9 15.5 104.5 13.5C104.9 12.3 105.667 11.3333 106 11L108 9.5L111 6.5C111.8 5.7 113.667 5.5 114.5 5.5V4L117 1H119L121 2H123C123.667 2.5 125.2 3.6 126 4C126.8 4.4 127.333 5.16667 127.5 5.5C128.333 6 131.3 7.5 136.5 9.5C141.7 11.5 139.333 11.3333 137.5 11V13.5C138.5 14 140.8 15.2 142 16C143.2 16.8 141.5 18 140.5 18.5C140.5 20 141.3 23.6 144.5 26C145.3 27.2 144.833 27.5 144.5 27.5V29.5V34H142H140L137.5 35L136.5 36V39C137 40.1667 138.5 43.2 140.5 46C141.3 47.2 141.833 48.5 142 49L144.5 50.5V52C146.167 52.5 149.3 53.7 148.5 54.5C147.7 55.3 146.833 57.5 146.5 58.5L144.5 61.5C144.167 62 142.9 63.8 140.5 67C139.3 69 140 69.1667 140.5 69L136.5 73C134.667 73 130.8 73.3 130 74.5C129.2 75.7 128 76 127.5 76L126 79C125.833 80.6667 125.4 84.2 125 85C124.6 85.8 124.833 88 125 89C124.667 90.8333 124 95 124 97C124 99 123.333 97.8333 123 97C123.333 99.8333 124 105.9 124 107.5C124 109.5 123 110 124 113.5C125 117 125 116 125 118V127.5C125 130.5 124.5 129 123 135C122 137.5 123.5 138 123 138C122.5 138 122.5 142 121 144C119.8 145.6 120.5 145.667 121 145.5V148C121.167 149.167 121.4 152.5 121 156.5L119.5 159C118.5 159.667 116.1 161.2 114.5 162C112.9 162.8 113.833 164.667 114.5 165.5C113 164.5 109.6 162.4 108 162C106.4 161.6 106.667 161.167 107 161C106.667 160 105.7 157.7 104.5 156.5C103.3 155.3 103 154.333 103 154L101.5 152.5C101 151.667 100 149.6 100 148V145.5C101 145.5 103.3 145.2 104.5 144C105.7 142.8 106 143.5 106 144V142C106.333 141 107 138.8 107 138C107 137.2 109 135.667 110 135V133.5L112.5 130.5C112 129.667 110.8 127.9 110 127.5C109.2 127.1 107.667 125.333 107 124.5L103 122.5H100L97 120.5H93.5L90 122.5C89.1667 121.833 87.4 120 87 118C86.6 116 85.8333 115.833 85.5 116L84 112.5H81.5H78H76H73L70.5 111L68.5 110L66 109L64 107.5C63.1667 106.833 61.3 105.2 60.5 104C59.7 102.8 58.5 103.167 58 103.5H55.5L52.5 104H49.5C48.8333 103.833 47.1 103.5 45.5 103.5C43.9 103.5 44.8333 102.167 45.5 101.5L47.5 98.5L45.5 97H37H35.5H32L29.5 98.5V100L28 101.5L26 103.5H24L23 104L21 107.5H18L15 109L13.5 110L9.5 111V107.5C10 106.167 11.1 103.1 11.5 101.5C11.9 99.9 10.3333 97.8333 9.5 97L7.25 94.5V89V85V82V78H6L7.25 76V73V71V67L5 64.5V58.5H7.25V54.75L9.5 54.5V52H6V49H1V46L15.5 29.5L18 30.5Z" fill="#B5CFB2"/>
<path d="M5 55L7.25 54.75M7.25 54.75L9.5 54.5V52H6V49H1V46L15.5 29.5L18 30.5V36V37.5L21 39L23 41H28L29.5 39L32 37.5C33.1667 37.5 35.8 37.2 37 36C38.2 34.8 39.1667 34.8333 39.5 35C40.3333 34.6667 42.3 34 43.5 34C45 34 45.5 29.5 49.5 23C51.1 21.8 50.1667 21.1667 49.5 21L45.5 15L47.5 13.5C48.1667 14 50.1 15 52.5 15C55.5 15 55.5 15 55.5 16C55.5 16.8 58.1667 16.6667 59.5 16.5L63 19.5L64 18.5C65.1667 18 68.6 16.6 73 15C75.5 15 74.5 13.5 77 12.5L78 11L81.5 9.5C82.8333 7.66667 85.8 4 87 4C88.2 4 89.5 5 90 5.5H92C93 6.5 95.1 9.8 95.5 15C95.9 16.2 96.6667 16.1667 97 16C98 16 100.9 15.5 104.5 13.5C104.9 12.3 105.667 11.3333 106 11L108 9.5C108.667 8.83333 110.2 7.3 111 6.5C111.8 5.7 113.667 5.5 114.5 5.5V4L117 1H119L121 2H123C123.667 2.5 125.2 3.6 126 4C126.8 4.4 127.333 5.16667 127.5 5.5C128.333 6 131.3 7.5 136.5 9.5C141.7 11.5 139.333 11.3333 137.5 11V13.5C138.5 14 140.8 15.2 142 16C143.2 16.8 141.5 18 140.5 18.5C140.5 20 141.3 23.6 144.5 26C145.3 27.2 144.833 27.5 144.5 27.5V29.5V34H142H140L137.5 35L136.5 36V39C137 40.1667 138.5 43.2 140.5 46C141.3 47.2 141.833 48.5 142 49L144.5 50.5V52C146.167 52.5 149.3 53.7 148.5 54.5C147.7 55.3 146.833 57.5 146.5 58.5L144.5 61.5C144.167 62 142.9 63.8 140.5 67C139.3 69 140 69.1667 140.5 69L136.5 73C134.667 73 130.8 73.3 130 74.5C129.2 75.7 128 76 127.5 76L126 79C125.833 80.6667 125.4 84.2 125 85C124.6 85.8 124.833 88 125 89C124.667 90.8333 124 95 124 97C124 99 123.333 97.8333 123 97C123.333 99.8333 124 105.9 124 107.5C124 109.5 123 110 124 113.5C125 117 125 116 125 118C125 120 125 120.5 125 127.5C125 130.5 124.5 129 123 135C122 137.5 123.5 138 123 138C122.5 138 122.5 142 121 144C119.8 145.6 120.5 145.667 121 145.5V148C121.167 149.167 121.4 152.5 121 156.5L119.5 159C118.5 159.667 116.1 161.2 114.5 162C112.9 162.8 113.833 164.667 114.5 165.5C113 164.5 109.6 162.4 108 162C106.4 161.6 106.667 161.167 107 161C106.667 160 105.7 157.7 104.5 156.5C103.3 155.3 103 154.333 103 154L101.5 152.5C101 151.667 100 149.6 100 148C100 146.4 100 145.667 100 145.5C101 145.5 103.3 145.2 104.5 144C105.7 142.8 106 143.5 106 144V142C106.333 141 107 138.8 107 138C107 137.2 109 135.667 110 135V133.5L112.5 130.5C112 129.667 110.8 127.9 110 127.5C109.2 127.1 107.667 125.333 107 124.5L103 122.5H100L97 120.5H93.5L90 122.5C89.1667 121.833 87.4 120 87 118C86.6 116 85.8333 115.833 85.5 116L84 112.5H81.5H78H76H73L70.5 111L68.5 110L66 109L64 107.5C63.1667 106.833 61.3 105.2 60.5 104C59.7 102.8 58.5 103.167 58 103.5H55.5L52.5 104H49.5C48.8333 103.833 47.1 103.5 45.5 103.5C43.9 103.5 44.8333 102.167 45.5 101.5L47.5 98.5L45.5 97C43.1667 97 38.2 97 37 97C35.8 97 35.5 97 35.5 97H32L29.5 98.5V100L28 101.5L26 103.5H24L23 104L21 107.5H18L15 109L13.5 110L9.5 111V107.5C10 106.167 11.1 103.1 11.5 101.5C11.9 99.9 10.3333 97.8333 9.5 97L7.25 94.5C7.25 93 7.25 89.8 7.25 89C7.25 88.2 7.25 86 7.25 85V82V78H6L7.25 76V73V71V67L5 64.5V58.5H7.25V54.75Z" stroke="#7E917C" stroke-width="0.7"/>
</svg>
