<svg width="32" height="19" viewBox="0 0 32 19" fill="none" xmlns="http://www.w3.org/2000/svg">
<path d="M1 7.13889H1.70312V4.30556H2.40625V3.59722H3.10938V4.30556H3.8125V4.77778H5.92188V4.30556H7.09375V3.59722H7.79688V2.88889H8.5V2.18056H9.90625V1.47222H11.3125V1H12.4844V1.47222H12.0156V2.18056H11.1953V2.88889H10.6094V4.30556H9.90625V6.43056H11.7812V7.13889H16V8.31944H17.4941V7.61111H18.1094V5.72222H18.8125V4.30556H18.1094V4.06944V3.59722H18.8125V2.88889H19.5156V3.59722H19.9844V4.30556H27.0156V5.01389H29.5938V6.90278H30.2969V9.02778H31V12.5694H30.2969V11.625H29.5938V11.1528H27.0156V11.8611H25.375V13.2778H24.9062V13.75H22.7969V14.6944H18.5781V15.1667H17.4062V15.875H16.7031V17.2917H16V18H13.8906V17.2917H13.2754V15.875H12.4844V15.1667H13.2754V13.2778H13.8906V12.5694H14.5938V11.1528H13.2754V10.4444H11.3125V11.1528H9.90625V11.8611H8.5V13.2778H7.09375V13.9861H5.92188V14.6944H4.36914V13.75H1.70312V12.5694H2.17188V9.73611H1.70312V8.31944H1V7.13889Z" fill="#6C2D3A" stroke="#4A1F28" stroke-width="0.7"/>
</svg>
