<svg width="66" height="38" viewBox="0 0 66 38" fill="none" xmlns="http://www.w3.org/2000/svg">
<path d="M1 14H2.5V8H4V6.5H5.5V8H7V9H11.5V8H14V6.5H15.5V5H17V3.5H20V2H23V1H25.5V2H24.5V3.5H22.75V5H21.5V8H20V12.5H24V14H33V16.5H36.1875V15H37.5V11H39V8H37.5V7.5V6.5H39V5H40.5V6.5H41.5V8H56.5V9.5H62V13.5H63.5V18H65V25.5H63.5V23.5H62V22.5H56.5V24H53V27H52V28H47.5V30H38.5V31H36V32.5H34.5V35.5H33V37H28.5V35.5H27.1875V32.5H25.5V31H27.1875V27H28.5V25.5H30V22.5H27.1875V21H23V22.5H20V24H17V27H14V28.5H11.5V30H8.1875V28H2.5V25.5H3.5V19.5H2.5V16.5H1V14Z" fill="#6C2D3A" stroke="#4A1F28" stroke-width="0.7"/>
</svg>
