<svg width="50" height="19" viewBox="0 0 50 19" fill="none" xmlns="http://www.w3.org/2000/svg">
<path d="M4.52941 4.30556V1.70833H9.94118V1H12.0588V1.70833H12.7647V2.41667H14.1765V3.125H14.6471V4.54167H16.2941V5.72222H17.4706V5.25H18.1765V4.30556H18.8824V3.83333H19.5882V5.01389H21.2353V4.54167H22.4118V5.25H25V4.30556H26.4118V3.83333H27.3529V3.125H28.5294V2.41667H29.2353V1.70833H29.9412V1H31.1176V1.70833H31.8235V2.41667H31.1176V4.54167H30.4118V5.25H29.7059V6.43056H31.1176V7.84722H32.0588V8.55556H32.5294V9.26389H33.2353V8.55556H35.3529V7.84722H36.0588V6.43056H36.7647V5.95833H37.4706V5.25H42.1765V4.54167H43.5882V3.83333H45V2.41667H46.1765V1.70833H48.2941V3.125H49V8.08333H48.2941V10.6806H47.5882V12.5694H46.8824V13.2778H46.1765V12.5694H44.2941H43.5882V13.2778H42.8824V12.5694H40.7647V13.2778H39.3529V14.6944H37.9412V15.4028H37.2353V16.1111H33.2353V16.8194H32.5294V16.1111H31.1176V15.4028H30.6471V14.6944H29.7059V13.9861H29.2353V13.2778H28.5294V13.9861H27.8235V13.2778H27.1176V12.5694H26.4118V13.2778H25.7059V14.6944H25V15.4028H23.5882V16.1111H23.1176V13.9861H21.7059V12.5694H20.2941V13.2778H19.5882V12.5694H18.8824V11.8611H16.2941V11.3889H15.3529V10.6806H12.7647V11.3889H11.3529V12.5694H9.94118V14.2222H9.47059V14.6944H6.64706V16.8194H5.94118V17.5278H4.52941V18H3.82353V15.6389V14.6944H3.11765V13.2778H2.41176V12.5694H1V11.8611V10.4444H2.64706V9.97222H3.11765V9.26389H3.82353V8.31944H4.52941V7.84722H5.23529V4.30556H4.52941Z" fill="#B9E6F9" stroke="#8DB3C4" stroke-width="0.7"/>
</svg>
