<svg width="104" height="38" viewBox="0 0 104 38" fill="none" xmlns="http://www.w3.org/2000/svg">
<path d="M8.5 8V2.5H20V1H24.5V2.5H26V4H29V5.5H30V8.5H33.5V11H36V10H37.5V8H39V7H40.5V9.5H44V8.5H46.5V10H52V8H55V7H57V5.5H59.5V4H61V2.5H62.5V1H65V2.5H66.5V4H65V8.5H63.5V10H62V12.5H65V15.5H67V17H68V18.5H69.5V17H74V15.5H75.5V12.5H77V11.5H78.5V10H88.5V8.5H91.5V7H94.5V4H97V2.5H101.5V5.5H103V16H101.5V21.5H100V25.5H98.5V27H97V25.5H93H91.5V27H90V25.5H85.5V27H82.5V30H79.5V31.5H78V33H69.5V34.5H68V33H65V31.5H64V30H62V28.5H61V27H59.5V28.5H58V27H56.5V25.5H55V27H53.5V30H52V31.5H49V33H48V28.5H45V25.5H42V27H40.5V25.5H39V24H33.5V23H31.5V21.5H26V23H23V25.5H20V29H19V30H13V34.5H11.5V36H8.5V37H7V32V30H5.5V27H4V25.5H1V24V21H4.5V20H5.5V18.5H7V16.5H8.5V15.5H10V8H8.5Z" fill="#B9E6F9" stroke="#8DB3C4" stroke-width="0.7"/>
</svg>
