<svg width="30" height="19" viewBox="0 0 30 19" fill="none" xmlns="http://www.w3.org/2000/svg">
<path d="M1 14.6944V13.5139V13.0417H2.63333V12.5694H5.2V11.8611H6.36667V11.3889V11.1528H10.3333V10.4444H11.0333H11.9667V11.1528H13.8333V10.4444H14.7667V9.73611H15.4667H16.8667V9.26389H18.0333V8.55556H19.4333V8.08333V5.01389H20.1333V2.88889L20.3667 2.65278H21.3V1.70833H22.2333V1H22.7V1.70833H23.4V3.83333H24.8V4.30556H26.2H28.7667L29 5.72222H28.3V7.13889H29V10.4444H28.3H27.1333V11.3889H24.1V11.8611H23.4V12.5694H22.7V13.0417H22.2333V13.9861H21.3V14.6944V16.5833V17.2917H20.8333H12.9V16.3472H13.8333V15.1667H12.4333V15.875H11.9667H11.0333V17.2917H9.63333L9.86667 18H8.46667V17.5278H6.36667H5.2V18H3.8V16.5833H4.5V15.875H5.2V15.1667H4.5V14.6944H1Z" fill="#CCAFCE" stroke="#B19BB3" stroke-width="0.7"/>
</svg>
