<svg width="62" height="38" viewBox="0 0 62 38" fill="none" xmlns="http://www.w3.org/2000/svg">
<path d="M1 30V27.5V26.5H4.5V25.5H10V24H12.5V23V22.5H21V21H22.5H24.5V22.5H28.5V21H30.5V19.5H32H35V18.5H37.5V17H40.5V16V9.5H42V5L42.5 4.5H44.5V2.5H46.5V1H47.5V2.5H49V7H52V8H55H60.5L61 11H59.5V14H61V21H59.5H57V23H50.5V24H49V25.5H47.5V26.5H46.5V28.5H44.5V30V34V35.5H43.5H26.5V33.5H28.5V31H25.5V32.5H24.5H22.5V35.5H19.5L20 37H17V36H12.5H10V37H7V34H8.5V32.5H10V31H8.5V30H1Z" fill="#CCAFCE" stroke="#B19BB3" stroke-width="0.7"/>
</svg>
