<svg width="69" height="44" viewBox="0 0 69 44" fill="none" xmlns="http://www.w3.org/2000/svg">
<path d="M5.69231 19.5902L2 22.1148H3.84615H7.30769C7.30769 22.1148 10.9077 22.8033 11.4615 22.8033H14.4615L15.6154 23.7213L18.1538 24.8689H24.3846L25.1923 25.5574L26.4615 26.2459C26.6923 26.7049 27.8462 27.8066 27.8462 28.541V30.6066V32.9016L29 33.5902L30.1538 35.8852H30.8462V36.8033V38.4098H36.1538V41.1639H38.9231V43L40.5385 41.623L41.9231 40.0164L45.1538 37.7213L45.6154 36.8033L47.4615 35.1967L48.1538 34.5082L50.2308 33.5902H50.9231L52.7692 32.4426L54.6154 31.7541H55.7692H58.5385V30.6066L60.6154 30.377C61.5385 29.918 62.2308 28.541 62.2308 28.541C62.2308 28.541 66.1538 28.4819 65.6923 28.2524V26.4163V25.5574H68V22.8033H65L62.4615 22.3443L61.3077 22.8033L59.9231 23.7213H58.5385L57.1538 24.8689L55.7692 25.5574H54.6154H52.7692C52.0769 25.5574 51.1538 24.4098 50.2308 23.7213C49.4923 23.1705 49.9231 22.4208 50.2308 22.1148L49.0769 20.5082V18.9016V17.5246L50.2308 16.1475V15V13.623H48.1538H46.3077V12.4754L45.6154 11.7869L45.1538 9.26229L45.6154 8.57377V7.19672L44.4615 6.04918V5.13115V3.7541L43.5385 3.29508H41.9231L41 3.7541H32.9231V6.04918H32L30.8462 5.13115L29 2.14754H25.1923H21.5L20.4615 1L17.2308 2.14754V3.7541L14.4615 5.13115V6.04918L12.3846 7.88525V9.26229L11.4615 10.6393L10.7692 11.7869L10.0769 13.623L8.69231 15V16.1475L7.30769 17.9836L5.69231 19.5902Z" fill="#3B4159" stroke="#2E3344" stroke-width="0.7"/>
</svg>
