<svg width="146" height="94" viewBox="0 0 146 94" fill="none" xmlns="http://www.w3.org/2000/svg">
<path d="M10 41.5L2 47H6H13.5C13.5 47 21.3 48.5 22.5 48.5H29L31.5 50.5L37 53H50.5L52.25 54.5L55 56C55.5 57 58 59.4 58 61V65.5V70.5L60.5 72L63 77H64.5V79V82.5H76V88.5H82V92.5L85.5 89.5L88.5 86L95.5 81L96.5 79L100.5 75.5L102 74L106.5 72H108L112 69.5L116 68H118.5H124.5V65.5L129 65C131 64 132.5 61 132.5 61C132.5 61 141 60.8713 140 60.3713V56.3713V54.5H145V48.5H138.5L133 47.5L130.5 48.5L127.5 50.5H124.5L121.5 53L118.5 54.5H116H112C110.5 54.5 108.5 52 106.5 50.5C104.9 49.3 105.833 47.6667 106.5 47L104 43.5V40V37L106.5 34V31.5V28.5H102H98V26L96.5 24.5L95.5 19L96.5 17.5V14.5L94 12V10V7L92 6H88.5L86.5 7H69V12H67L64.5 10L60.5 3.5H52.25H44.25L42 1L35 3.5V7L29 10V12L24.5 16V19L22.5 22L21 24.5L19.5 28.5L16.5 31.5V34L13.5 38L10 41.5Z" fill="#3B4159" stroke="#2E3344" stroke-width="0.7"/>
</svg>
